<svg width="86" height="86" viewBox="0 0 86 86" fill="none" xmlns="http://www.w3.org/2000/svg">
<path fill-rule="evenodd" clip-rule="evenodd" d="M39.3737 41.4525C40.4543 40.9725 41.3831 40.2062 42.0597 39.2365C42.6962 38.1824 43.0098 36.9649 42.9617 35.7345C43.0036 34.6097 42.796 33.4895 42.3537 32.4545C41.9915 31.5732 41.3971 30.8066 40.6337 30.2364C39.8337 29.6564 38.9237 29.2624 37.9677 29.0844C36.8386 28.8336 35.6842 28.7142 34.5277 28.7284H22.5996C22.4405 28.7284 22.2879 28.7917 22.1754 28.9042C22.0628 29.0167 21.9996 29.1693 21.9996 29.3284V56.0106C21.9996 56.1697 22.0628 56.3223 22.1754 56.4348C22.2879 56.5473 22.4405 56.6106 22.5996 56.6106H34.7997C35.9677 56.6106 37.1317 56.4546 38.2597 56.1446C39.3387 55.8487 40.3556 55.3609 41.2617 54.7046C42.1565 54.0456 42.8773 53.1786 43.3617 52.1785C43.909 51.0387 44.1751 49.7844 44.1377 48.5205C44.1793 46.958 43.7628 45.4174 42.9397 44.0885C42.0849 42.7841 40.7764 41.8433 39.2677 41.4485H39.3737V41.4525ZM28.0997 33.2285C27.9936 33.2285 27.8918 33.2706 27.8168 33.3456C27.7418 33.4206 27.6997 33.5224 27.6997 33.6285V39.8285C27.6997 40.0485 27.8797 40.2285 28.0997 40.2285H33.6997C34.6279 40.2285 35.5182 39.8597 36.1746 39.2034C36.8309 38.547 37.1997 37.6567 37.1997 36.7285C37.1997 35.8002 36.8309 34.91 36.1746 34.2536C35.5182 33.5972 34.6279 33.2285 33.6997 33.2285H28.0997ZM27.6997 44.1285C27.6997 43.9085 27.8797 43.7285 28.0997 43.7285H33.9497C35.0769 43.7285 36.1579 44.1763 36.9549 44.9733C37.7519 45.7703 38.1997 46.8513 38.1997 47.9785C38.1997 49.1057 37.7519 50.1867 36.9549 50.9837C36.1579 51.7808 35.0769 52.2285 33.9497 52.2285H28.0997C27.9936 52.2285 27.8918 52.1864 27.8168 52.1114C27.7418 52.0364 27.6997 51.9346 27.6997 51.8285V44.1285Z" fill="#64CCC5"/>
<path d="M49.8777 30.1483H59.3238C59.4815 30.1483 59.6329 30.2104 59.7452 30.3212C59.8575 30.432 59.9217 30.5826 59.9238 30.7403L59.9498 32.6643C59.9508 32.7438 59.9361 32.8227 59.9064 32.8964C59.8767 32.9701 59.8327 33.0372 59.7769 33.0938C59.7211 33.1503 59.6546 33.1953 59.5812 33.2259C59.5079 33.2566 59.4292 33.2723 59.3498 33.2723H49.8777C49.7186 33.2723 49.566 33.2091 49.4534 33.0966C49.3409 32.9841 49.2777 32.8315 49.2777 32.6723V30.7483C49.2777 30.5892 49.3409 30.4366 49.4534 30.3241C49.566 30.2115 49.7186 30.1483 49.8777 30.1483Z" fill="#64CCC5"/>
<path fill-rule="evenodd" clip-rule="evenodd" d="M54.9438 52.4685C55.9173 52.4974 56.8738 52.2097 57.6698 51.6485C58.1898 51.3025 58.6038 50.8085 58.8658 50.2245C58.8986 50.1484 58.9526 50.0834 59.0214 50.0373C59.0903 49.9911 59.171 49.9659 59.2538 49.9645H63.0958C63.3558 49.9645 63.5478 50.2085 63.4698 50.4565C62.9006 52.3348 61.7526 53.9853 60.1898 55.1726C58.5449 56.2432 56.6115 56.7841 54.6498 56.7226C53.2558 56.7475 51.8709 56.4918 50.5778 55.9706C49.4017 55.4738 48.3544 54.7152 47.5158 53.7526C46.6861 52.7529 46.0584 51.6015 45.6678 50.3625C45.2018 48.9777 44.9752 47.5235 44.9978 46.0625C44.9841 44.622 45.2182 43.1898 45.6898 41.8285C46.1221 40.584 46.7994 39.4388 47.6818 38.4605C48.5498 37.52 49.5997 36.7655 50.7678 36.2425C52.0241 35.6923 53.3823 35.4129 54.7538 35.4225C56.2146 35.4008 57.6577 35.7445 58.9518 36.4225C60.136 37.0776 61.1552 37.9942 61.9318 39.1025C62.7138 40.2585 63.2838 41.5585 63.6098 42.9365C63.9465 44.3889 64.0664 45.8831 63.9658 47.3705H50.0758C50.0095 48.7869 50.4729 50.1772 51.3758 51.2705C51.8598 51.7185 52.4278 52.0565 53.0418 52.2625C53.6558 52.4685 54.3038 52.5386 54.9438 52.4685ZM50.1998 43.5265C50.1995 43.5531 50.2045 43.5795 50.2146 43.6041C50.2247 43.6288 50.2395 43.6511 50.2583 43.6699C50.2772 43.6888 50.2995 43.7036 50.3242 43.7137C50.3488 43.7237 50.3752 43.7288 50.4018 43.7285H58.4978C58.5514 43.7285 58.6028 43.7072 58.6406 43.6693C58.6785 43.6315 58.6998 43.5801 58.6998 43.5265C58.6998 42.4529 58.2733 41.4233 57.5142 40.6641C56.755 39.905 55.7254 39.4785 54.6518 39.4785H54.2478C53.1742 39.4785 52.1446 39.905 51.3854 40.6641C50.6263 41.4233 50.1998 42.4529 50.1998 43.5265Z" fill="#64CCC5"/>
</svg>
