<svg width="86" height="86" viewBox="0 0 86 86" fill="none" xmlns="http://www.w3.org/2000/svg">
<path d="M44.4392 28.7293C45.4608 28.7253 46.4824 28.7356 47.5037 28.7601L47.7752 28.7699C48.0888 28.7811 48.3982 28.7951 48.772 28.8119C50.2615 28.8819 51.2779 29.117 52.1696 29.4628C53.0936 29.8184 53.8719 30.3 54.6503 31.0783C55.362 31.7778 55.9128 32.6238 56.2644 33.5576C56.6102 34.4494 56.8454 35.4671 56.9154 36.9566C56.9322 37.329 56.9462 37.6398 56.9574 37.9534L56.9658 38.225C56.9906 39.2458 57.0014 40.2669 56.998 41.288L56.9994 42.3324V44.1663C57.0028 45.1879 56.9921 46.2094 56.9672 47.2307L56.9588 47.5023C56.9476 47.8159 56.9336 48.1253 56.9168 48.499C56.8468 49.9886 56.6088 51.0049 56.2644 51.8967C55.9139 52.8315 55.363 53.6782 54.6503 54.3773C53.9503 55.089 53.1038 55.6397 52.1696 55.9915C51.2779 56.3372 50.2615 56.5724 48.772 56.6424C48.3982 56.6592 48.0888 56.6732 47.7752 56.6844L47.5037 56.6928C46.4824 56.7177 45.4608 56.7284 44.4392 56.725L43.3949 56.7264H41.5624C40.5408 56.7299 39.5192 56.7191 38.4979 56.6942L38.2263 56.6858C37.894 56.6738 37.5618 56.6598 37.2296 56.6438C35.7401 56.5738 34.7237 56.3358 33.8306 55.9915C32.8964 55.6406 32.0502 55.0897 31.3513 54.3773C30.6388 53.6778 30.0875 52.8312 29.7358 51.8967C29.39 51.0049 29.1548 49.9886 29.0848 48.499C29.0692 48.1669 29.0552 47.8346 29.0428 47.5023L29.0358 47.2307C29.01 46.2094 28.9983 45.1879 29.0008 44.1663V41.288C28.9969 40.2669 29.0072 39.2458 29.0316 38.225L29.0414 37.9534C29.0526 37.6398 29.0666 37.329 29.0834 36.9566C29.1534 35.4657 29.3886 34.4508 29.7344 33.5576C30.0863 32.6233 30.6387 31.7775 31.3527 31.0797C32.0511 30.3668 32.8968 29.815 33.8306 29.4628C34.7237 29.117 35.7387 28.8819 37.2296 28.8119L38.2263 28.7699L38.4979 28.7629C39.5187 28.7371 40.5398 28.7254 41.561 28.7279L44.4392 28.7293ZM43.0001 35.7289C42.0726 35.7158 41.1518 35.8871 40.2912 36.233C39.4305 36.5788 38.6472 37.0923 37.9867 37.7435C37.3262 38.3947 36.8018 39.1707 36.4438 40.0264C36.0858 40.882 35.9015 41.8003 35.9015 42.7278C35.9015 43.6554 36.0858 44.5737 36.4438 45.4293C36.8018 46.285 37.3262 47.061 37.9867 47.7122C38.6472 48.3634 39.4305 48.8769 40.2912 49.2227C41.1518 49.5686 42.0726 49.7399 43.0001 49.7268C44.8565 49.7268 46.6369 48.9893 47.9496 47.6766C49.2623 46.364 49.9997 44.5836 49.9997 42.7271C49.9997 40.8707 49.2623 39.0903 47.9496 37.7776C46.6369 36.465 44.8565 35.7289 43.0001 35.7289ZM43.0001 38.5288C43.558 38.5185 44.1123 38.6195 44.6307 38.8258C45.1491 39.0322 45.6212 39.3398 46.0194 39.7307C46.4176 40.1215 46.7339 40.5878 46.9499 41.1023C47.1659 41.6168 47.2772 42.1692 47.2772 42.7271C47.2773 43.2851 47.1662 43.8375 46.9505 44.3521C46.7347 44.8666 46.4185 45.333 46.0204 45.724C45.6224 46.115 45.1504 46.4228 44.632 46.6293C44.1137 46.8358 43.5594 46.937 43.0015 46.9269C41.8876 46.9269 40.8194 46.4845 40.0318 45.6968C39.2442 44.9092 38.8017 43.841 38.8017 42.7271C38.8017 41.6133 39.2442 40.5451 40.0318 39.7574C40.8194 38.9698 41.8876 38.5274 43.0015 38.5274L43.0001 38.5288ZM50.3497 33.629C49.8981 33.6471 49.471 33.8392 49.1578 34.1651C48.8447 34.4911 48.6698 34.9255 48.6698 35.3775C48.6698 35.8295 48.8447 36.264 49.1578 36.5899C49.471 36.9158 49.8981 37.108 50.3497 37.126C50.8138 37.126 51.2589 36.9417 51.5871 36.6135C51.9153 36.2853 52.0996 35.8402 52.0996 35.3761C52.0996 34.912 51.9153 34.4669 51.5871 34.1387C51.2589 33.8106 50.8138 33.6262 50.3497 33.6262V33.629Z" fill="#64CCC5"/>
</svg>
