<svg width="86" height="86" viewBox="0 0 86 86" fill="none" xmlns="http://www.w3.org/2000/svg">
<path d="M29 30.7328C29 29.625 29.9205 28.7273 31.0562 28.7273H54.9438C56.0795 28.7273 57 29.625 57 30.7328V54.7218C57 55.8295 56.0795 56.7273 54.9438 56.7273H31.0562C29.9205 56.7273 29 55.8295 29 54.7218V30.7328ZM37.6502 52.1668V39.523H33.4485V52.1668H37.6502ZM35.5503 37.7958C37.015 37.7958 37.9268 36.8263 37.9268 35.6118C37.9005 34.371 37.0168 33.4278 35.5782 33.4278C34.1398 33.4278 33.2 34.3728 33.2 35.6118C33.2 36.8263 34.1118 37.7958 35.5223 37.7958H35.5503ZM44.1392 52.1668V45.1055C44.1392 44.7275 44.1672 44.3495 44.2793 44.08C44.582 43.3258 45.2733 42.5435 46.4353 42.5435C47.956 42.5435 48.5632 43.702 48.5632 45.403V52.1668H52.765V44.9148C52.765 41.0298 50.693 39.2238 47.928 39.2238C45.6985 39.2238 44.6993 40.4488 44.1392 41.3115V41.3553H44.1112C44.1205 41.3407 44.1299 41.3261 44.1392 41.3115V39.523H39.9392C39.9917 40.7095 39.9392 52.1668 39.9392 52.1668H44.1392Z" fill="#64CCC5"/>
</svg>
